<mxfile host="app.diagrams.net" modified="2024-05-28T11:34:53.569Z" agent="Mozilla/5.0 (Windows NT 10.0; Win64; x64) AppleWebKit/537.36 (KHTML, like Gecko) Chrome/121.0.0.0 Safari/537.36" etag="sUZkUZAMsjK0VZ_nlu-1" version="24.4.9" type="device">
  <diagram name="Página-1" id="3VFf6n_lZknBIaBcsMpe">
    <mxGraphModel dx="1434" dy="782" grid="1" gridSize="10" guides="1" tooltips="1" connect="1" arrows="1" fold="1" page="1" pageScale="1" pageWidth="827" pageHeight="1169" math="0" shadow="0">
      <root>
        <mxCell id="0" />
        <mxCell id="1" parent="0" />
        <mxCell id="lSif2uUQa-h3lIk-mS_9-1" value="" style="rounded=1;whiteSpace=wrap;html=1;fillColor=#f5f5f5;gradientColor=#b3b3b3;strokeColor=#666666;" vertex="1" parent="1">
          <mxGeometry x="100" y="100" width="410" height="620" as="geometry" />
        </mxCell>
        <mxCell id="lSif2uUQa-h3lIk-mS_9-2" value="" style="rounded=1;whiteSpace=wrap;html=1;fillColor=#f5f5f5;gradientColor=#b3b3b3;strokeColor=#666666;" vertex="1" parent="1">
          <mxGeometry x="630" y="202.5" width="620" height="415" as="geometry" />
        </mxCell>
        <mxCell id="lSif2uUQa-h3lIk-mS_9-3" value="&lt;font style=&quot;font-size: 18px;&quot;&gt;Despache&amp;nbsp; de Tecido&lt;/font&gt;" style="text;html=1;align=center;verticalAlign=middle;resizable=0;points=[];autosize=1;strokeColor=none;fillColor=none;" vertex="1" parent="1">
          <mxGeometry x="210" y="140" width="190" height="40" as="geometry" />
        </mxCell>
        <mxCell id="lSif2uUQa-h3lIk-mS_9-4" value="&lt;font style=&quot;font-size: 18px;&quot;&gt;Despache de Tecido&lt;/font&gt;" style="text;html=1;align=center;verticalAlign=middle;resizable=0;points=[];autosize=1;strokeColor=none;fillColor=none;" vertex="1" parent="1">
          <mxGeometry x="827" y="240" width="190" height="40" as="geometry" />
        </mxCell>
        <mxCell id="lSif2uUQa-h3lIk-mS_9-5" value="Localidade :" style="text;html=1;align=center;verticalAlign=middle;resizable=0;points=[];autosize=1;strokeColor=none;fillColor=none;" vertex="1" parent="1">
          <mxGeometry x="150" y="282.5" width="90" height="30" as="geometry" />
        </mxCell>
        <mxCell id="lSif2uUQa-h3lIk-mS_9-6" value="Quantidade :" style="text;html=1;align=center;verticalAlign=middle;resizable=0;points=[];autosize=1;strokeColor=none;fillColor=none;" vertex="1" parent="1">
          <mxGeometry x="150" y="337.5" width="90" height="30" as="geometry" />
        </mxCell>
        <mxCell id="lSif2uUQa-h3lIk-mS_9-7" value="Tecido :" style="text;html=1;align=center;verticalAlign=middle;resizable=0;points=[];autosize=1;strokeColor=none;fillColor=none;" vertex="1" parent="1">
          <mxGeometry x="165" y="230" width="60" height="30" as="geometry" />
        </mxCell>
        <mxCell id="lSif2uUQa-h3lIk-mS_9-14" value="Fazer Compra" style="rounded=1;whiteSpace=wrap;html=1;shadow=1;fillColor=#eeeeee;strokeColor=#36393d;sketch=1;curveFitting=1;jiggle=2;" vertex="1" parent="1">
          <mxGeometry x="245" y="555" width="120" height="60" as="geometry" />
        </mxCell>
        <mxCell id="lSif2uUQa-h3lIk-mS_9-15" value="Analisar melhor Preço :" style="text;html=1;align=center;verticalAlign=middle;resizable=0;points=[];autosize=1;strokeColor=none;fillColor=none;" vertex="1" parent="1">
          <mxGeometry x="120" y="395" width="150" height="30" as="geometry" />
        </mxCell>
        <mxCell id="lSif2uUQa-h3lIk-mS_9-16" value="" style="rounded=1;whiteSpace=wrap;html=1;shadow=1;" vertex="1" parent="1">
          <mxGeometry x="270" y="397.5" width="200" height="22.5" as="geometry" />
        </mxCell>
        <mxCell id="lSif2uUQa-h3lIk-mS_9-17" value="" style="rounded=1;whiteSpace=wrap;html=1;shadow=1;" vertex="1" parent="1">
          <mxGeometry x="270" y="341.25" width="200" height="22.5" as="geometry" />
        </mxCell>
        <mxCell id="lSif2uUQa-h3lIk-mS_9-18" value="" style="rounded=1;whiteSpace=wrap;html=1;shadow=1;" vertex="1" parent="1">
          <mxGeometry x="260" y="286.25" width="200" height="22.5" as="geometry" />
        </mxCell>
        <mxCell id="lSif2uUQa-h3lIk-mS_9-19" value="" style="rounded=1;whiteSpace=wrap;html=1;shadow=1;" vertex="1" parent="1">
          <mxGeometry x="250" y="233.75" width="200" height="22.5" as="geometry" />
        </mxCell>
        <mxCell id="lSif2uUQa-h3lIk-mS_9-20" value="Tecido :" style="text;html=1;align=center;verticalAlign=middle;resizable=0;points=[];autosize=1;strokeColor=none;fillColor=none;" vertex="1" parent="1">
          <mxGeometry x="670" y="311.25" width="60" height="30" as="geometry" />
        </mxCell>
        <mxCell id="lSif2uUQa-h3lIk-mS_9-21" value="Localidade :" style="text;html=1;align=center;verticalAlign=middle;resizable=0;points=[];autosize=1;strokeColor=none;fillColor=none;" vertex="1" parent="1">
          <mxGeometry x="650" y="360" width="90" height="30" as="geometry" />
        </mxCell>
        <mxCell id="lSif2uUQa-h3lIk-mS_9-22" value="Quantidade :" style="text;html=1;align=center;verticalAlign=middle;resizable=0;points=[];autosize=1;strokeColor=none;fillColor=none;" vertex="1" parent="1">
          <mxGeometry x="940" y="360" width="90" height="30" as="geometry" />
        </mxCell>
        <mxCell id="lSif2uUQa-h3lIk-mS_9-23" value="Analisar melhor Preço :" style="text;html=1;align=center;verticalAlign=middle;resizable=0;points=[];autosize=1;strokeColor=none;fillColor=none;" vertex="1" parent="1">
          <mxGeometry x="910" y="311.25" width="150" height="30" as="geometry" />
        </mxCell>
        <mxCell id="lSif2uUQa-h3lIk-mS_9-24" value="" style="rounded=1;whiteSpace=wrap;html=1;" vertex="1" parent="1">
          <mxGeometry x="740" y="315.63" width="160" height="21.25" as="geometry" />
        </mxCell>
        <mxCell id="lSif2uUQa-h3lIk-mS_9-26" value="" style="rounded=1;whiteSpace=wrap;html=1;" vertex="1" parent="1">
          <mxGeometry x="740" y="367.5" width="160" height="21.25" as="geometry" />
        </mxCell>
        <mxCell id="lSif2uUQa-h3lIk-mS_9-27" value="" style="rounded=1;whiteSpace=wrap;html=1;" vertex="1" parent="1">
          <mxGeometry x="1060" y="315.63" width="160" height="21.25" as="geometry" />
        </mxCell>
        <mxCell id="lSif2uUQa-h3lIk-mS_9-28" value="" style="rounded=1;whiteSpace=wrap;html=1;" vertex="1" parent="1">
          <mxGeometry x="1060" y="360" width="160" height="21.25" as="geometry" />
        </mxCell>
        <mxCell id="lSif2uUQa-h3lIk-mS_9-30" value="Fazer Compra" style="rounded=1;whiteSpace=wrap;html=1;shadow=1;fillColor=#eeeeee;strokeColor=#36393d;sketch=1;curveFitting=1;jiggle=2;" vertex="1" parent="1">
          <mxGeometry x="880" y="480" width="120" height="60" as="geometry" />
        </mxCell>
      </root>
    </mxGraphModel>
  </diagram>
</mxfile>
